<svg fill="none" xmlns="http://www.w3.org/2000/svg" viewBox="0 0 275 304">
  <mask id="lRxQWlMMlHa" maskUnits="userSpaceOnUse" x="0" y="0" width="275" height="304" fill="#000">
    <path fill="#fff" d="M0 0h275v304H0z"/>
    <path d="M41.93 65.47c8.433 0 15.327-3.337 20.68-10.01l11 11.33c-8.727 9.827-19.03 14.74-30.91 14.74-11.807 0-21.56-3.74-29.26-11.22C5.813 62.83 2 53.407 2 42.04c0-11.44 3.887-20.973 11.66-28.6C21.507 5.813 31.077 2 42.37 2c12.613 0 23.173 4.803 31.68 14.41l-10.67 12.1c-5.427-6.747-12.173-10.12-20.24-10.12-6.453 0-11.99 2.127-16.61 6.38-4.547 4.18-6.82 9.863-6.82 17.05 0 7.113 2.163 12.833 6.49 17.16s9.57 6.49 15.73 6.49zm117.099 15.18l-7.15-16.61h-32.23l-7.15 16.61h-18.26l33.22-76.89h16.61l33.22 76.89h-18.26zm-23.21-54.01l-9.68 22.33h19.25l-9.57-22.33zm130.363 2.64c0 12.32-4.876 20.277-14.63 23.87l19.47 27.5h-21.12l-17.05-24.53h-11.88v24.53h-17.16V3.76h29.15c11.954 0 20.46 2.017 25.52 6.05 5.134 4.033 7.7 10.523 7.7 19.47zm-32.67 11.99c5.867 0 9.864-.953 11.99-2.86 2.127-1.907 3.19-4.913 3.19-9.02 0-4.18-1.1-7.04-3.3-8.58-2.2-1.54-6.05-2.31-11.55-2.31h-12.87v22.77h12.54zM33.79 113.76c13.713 0 24.237 3.373 31.57 10.12 7.333 6.673 11 15.987 11 27.94 0 11.953-3.593 21.413-10.78 28.38-7.113 6.967-18.003 10.45-32.67 10.45H6.62v-76.89h27.17zm.88 61.71c7.847 0 13.86-1.98 18.04-5.94 4.253-3.96 6.38-9.717 6.38-17.27 0-7.553-2.127-13.347-6.38-17.38-4.18-4.107-10.633-6.16-19.36-6.16h-9.57v46.75h10.89zm128.871 15.18l-7.15-16.61h-32.23l-7.15 16.61h-18.26l33.22-76.89h16.61l33.22 76.89h-18.26zm-23.21-54.01l-9.68 22.33h19.25l-9.57-22.33zm7.26-30.8h-15.73l13.97-19.47 17.05 7.15-15.29 12.32zM33.79 223.76c11.807 0 20.387 2.31 25.74 6.93 5.427 4.547 8.14 11.587 8.14 21.12 0 9.46-2.787 16.39-8.36 20.79-5.5 4.4-13.933 6.6-25.3 6.6H23.78v21.45H6.62v-76.89h27.17zm1.54 40.59c5.72 0 9.607-1.137 11.66-3.41 2.053-2.347 3.08-5.72 3.08-10.12 0-4.473-1.357-7.627-4.07-9.46-2.64-1.907-6.783-2.86-12.43-2.86h-9.79v25.85h11.55zm63.333-40.59h17.16v76.89h-17.16v-76.89zm112.544 38.06c0-6.893-2.2-12.76-6.6-17.6-4.4-4.84-9.827-7.26-16.28-7.26-6.38 0-11.77 2.42-16.17 7.26-4.4 4.84-6.6 10.707-6.6 17.6 0 6.82 2.2 12.65 6.6 17.49 4.4 4.767 9.79 7.15 16.17 7.15 6.453 0 11.88-2.383 16.28-7.15 4.4-4.84 6.6-10.67 6.6-17.49zm5.83 28.27c-7.773 7.553-17.343 11.33-28.71 11.33s-20.937-3.777-28.71-11.33c-7.773-7.627-11.66-17.087-11.66-28.38s3.887-20.717 11.66-28.27c7.773-7.627 17.343-11.44 28.71-11.44s20.937 3.813 28.71 11.44c7.773 7.553 11.66 16.977 11.66 28.27s-3.887 20.753-11.66 28.38z"/>
  </mask>
  <path d="M41.93 65.47c8.433 0 15.327-3.337 20.68-10.01l11 11.33c-8.727 9.827-19.03 14.74-30.91 14.74-11.807 0-21.56-3.74-29.26-11.22C5.813 62.83 2 53.407 2 42.04c0-11.44 3.887-20.973 11.66-28.6C21.507 5.813 31.077 2 42.37 2c12.613 0 23.173 4.803 31.68 14.41l-10.67 12.1c-5.427-6.747-12.173-10.12-20.24-10.12-6.453 0-11.99 2.127-16.61 6.38-4.547 4.18-6.82 9.863-6.82 17.05 0 7.113 2.163 12.833 6.49 17.16s9.57 6.49 15.73 6.49zm117.099 15.18l-7.15-16.61h-32.23l-7.15 16.61h-18.26l33.22-76.89h16.61l33.22 76.89h-18.26zm-23.21-54.01l-9.68 22.33h19.25l-9.57-22.33zm130.363 2.64c0 12.32-4.876 20.277-14.63 23.87l19.47 27.5h-21.12l-17.05-24.53h-11.88v24.53h-17.16V3.76h29.15c11.954 0 20.46 2.017 25.52 6.05 5.134 4.033 7.7 10.523 7.7 19.47zm-32.67 11.99c5.867 0 9.864-.953 11.99-2.86 2.127-1.907 3.19-4.913 3.19-9.02 0-4.18-1.1-7.04-3.3-8.58-2.2-1.54-6.05-2.31-11.55-2.31h-12.87v22.77h12.54zM33.79 113.76c13.713 0 24.237 3.373 31.57 10.12 7.333 6.673 11 15.987 11 27.94 0 11.953-3.593 21.413-10.78 28.38-7.113 6.967-18.003 10.45-32.67 10.45H6.62v-76.89h27.17zm.88 61.71c7.847 0 13.86-1.98 18.04-5.94 4.253-3.96 6.38-9.717 6.38-17.27 0-7.553-2.127-13.347-6.38-17.38-4.18-4.107-10.633-6.16-19.36-6.16h-9.57v46.75h10.89zm128.871 15.18l-7.15-16.61h-32.23l-7.15 16.61h-18.26l33.22-76.89h16.61l33.22 76.89h-18.26zm-23.21-54.01l-9.68 22.33h19.25l-9.57-22.33zm7.26-30.8h-15.73l13.97-19.47 17.05 7.15-15.29 12.32zM33.79 223.76c11.807 0 20.387 2.31 25.74 6.93 5.427 4.547 8.14 11.587 8.14 21.12 0 9.46-2.787 16.39-8.36 20.79-5.5 4.4-13.933 6.6-25.3 6.6H23.78v21.45H6.62v-76.89h27.17zm1.54 40.59c5.72 0 9.607-1.137 11.66-3.41 2.053-2.347 3.08-5.72 3.08-10.12 0-4.473-1.357-7.627-4.07-9.46-2.64-1.907-6.783-2.86-12.43-2.86h-9.79v25.85h11.55zm63.333-40.59h17.16v76.89h-17.16v-76.89zm112.544 38.06c0-6.893-2.2-12.76-6.6-17.6-4.4-4.84-9.827-7.26-16.28-7.26-6.38 0-11.77 2.42-16.17 7.26-4.4 4.84-6.6 10.707-6.6 17.6 0 6.82 2.2 12.65 6.6 17.49 4.4 4.767 9.79 7.15 16.17 7.15 6.453 0 11.88-2.383 16.28-7.15 4.4-4.84 6.6-10.67 6.6-17.49zm5.83 28.27c-7.773 7.553-17.343 11.33-28.71 11.33s-20.937-3.777-28.71-11.33c-7.773-7.627-11.66-17.087-11.66-28.38s3.887-20.717 11.66-28.27c7.773-7.627 17.343-11.44 28.71-11.44s20.937 3.813 28.71 11.44c7.773 7.553 11.66 16.977 11.66 28.27s-3.887 20.753-11.66 28.38z" stroke="#156464" stroke-width="4" mask="url(#lRxQWlMMlHa)"/>
</svg>
