<svg fill="none" xmlns="http://www.w3.org/2000/svg" viewBox="0 0 1449 161">
  <mask id="TvG_xq6PiQ_a" maskUnits="userSpaceOnUse" x="0" y="0" width="1449" height="161" fill="#000">
    <path fill="#fff" d="M0 0h1449v161H0z"/>
    <path d="M122.44 55.78c-4.987-6.307-10.927-11.293-17.82-14.96-6.893-3.813-13.713-5.72-20.46-5.72-7.773 0-14.887 1.98-21.34 5.94-6.307 3.813-11.293 9.167-14.96 16.06-3.667 6.747-5.5 14.3-5.5 22.66s1.833 15.987 5.5 22.88c3.667 6.747 8.653 12.1 14.96 16.06 6.453 3.813 13.567 5.72 21.34 5.72 6.307 0 12.907-1.613 19.8-4.84 6.893-3.227 13.053-7.627 18.48-13.2l23.54 25.3c-8.36 8.8-18.333 15.84-29.92 21.12-11.44 5.133-22.807 7.7-34.1 7.7-15.253 0-29.04-3.52-41.36-10.56-12.32-7.04-22-16.647-29.04-28.82C4.52 108.947 1 95.307 1 80.2c0-14.96 3.593-28.453 10.78-40.48 7.187-12.027 17.013-21.487 29.48-28.38C53.873 4.447 67.953 1 83.5 1c11.44 0 22.733 2.42 33.88 7.26 11.147 4.693 20.607 11.147 28.38 19.36l-23.32 28.16zm187.565 101.86l-10.56-27.28h-66.66l-10.78 27.28h-41.36l66.22-154.22h41.36l64.68 154.22h-42.9zm-65.12-58.08h42.68l-21.12-55-21.56 55zm249.797 58.08l-22.44-42.68h-29.92v42.68h-40.26V3.42h69.3c20.386 0 36.153 4.767 47.3 14.3 11.293 9.387 16.94 22.66 16.94 39.82 0 11.587-2.347 21.633-7.04 30.14-4.694 8.36-11.514 14.887-20.46 19.58l32.12 50.38h-45.54zm-52.36-74.8h29.26c8.213 0 14.52-2.053 18.92-6.16 4.546-4.107 6.82-10.047 6.82-17.82 0-7.48-2.274-13.2-6.82-17.16-4.4-4.107-10.707-6.16-18.92-6.16h-29.26v47.3zM662.901 3.42c16.133 0 30.36 3.227 42.68 9.68 12.467 6.453 22.147 15.547 29.04 27.28 6.893 11.587 10.34 24.933 10.34 40.04s-3.52 28.527-10.56 40.26c-6.893 11.733-16.72 20.827-29.48 27.28-12.613 6.453-27.133 9.68-43.56 9.68h-64.9V3.42h66.44zm1.1 121.66c7.773 0 14.667-1.833 20.68-5.5s10.707-8.873 14.08-15.62c3.373-6.747 5.06-14.447 5.06-23.1 0-8.8-1.833-16.573-5.5-23.32-3.52-6.747-8.433-11.953-14.74-15.62-6.307-3.813-13.493-5.72-21.56-5.72h-25.3v88.88h27.28zm245.315 32.56l-10.56-27.28h-66.66l-10.78 27.28h-41.36l66.22-154.22h41.36l64.68 154.22h-42.9zm-65.12-58.08h42.68l-21.12-55-21.56 55zM1069.13 3.42c19.66 0 34.91 4.767 45.76 14.3 10.86 9.387 16.28 22.66 16.28 39.82 0 18.187-5.42 32.34-16.28 42.46-10.85 9.973-26.1 14.96-45.76 14.96h-27.5v42.68h-40.26V3.42h67.76zm-1.98 79.42c8.22 0 14.52-2.053 18.92-6.16 4.55-4.107 6.82-10.047 6.82-17.82 0-7.48-2.27-13.2-6.82-17.16-4.4-4.107-10.7-6.16-18.92-6.16h-25.52v47.3h25.52zM1186.1 3.42h40.26v154.22h-40.26V3.42zM1365.04 1c15.69 0 29.84 3.447 42.46 10.34 12.76 6.893 22.73 16.353 29.92 28.38 7.33 12.027 11 25.52 11 40.48 0 15.107-3.67 28.747-11 40.92-7.19 12.173-17.16 21.78-29.92 28.82-12.62 7.04-26.77 10.56-42.46 10.56-15.7 0-29.92-3.447-42.68-10.34-12.62-7.04-22.59-16.647-29.92-28.82-7.19-12.32-10.78-26.033-10.78-41.14 0-14.96 3.59-28.453 10.78-40.48 7.33-12.027 17.3-21.487 29.92-28.38C1335.12 4.447 1349.34 1 1365.04 1zm.44 34.1c-7.63 0-14.74 1.98-21.34 5.94-6.46 3.96-11.59 9.46-15.4 16.5-3.82 6.893-5.72 14.52-5.72 22.88 0 8.507 1.9 16.28 5.72 23.32 3.96 6.893 9.16 12.393 15.62 16.5 6.45 3.96 13.49 5.94 21.12 5.94 7.62 0 14.59-1.98 20.9-5.94 6.45-4.107 11.51-9.607 15.18-16.5 3.66-7.04 5.5-14.813 5.5-23.32 0-8.36-1.84-15.987-5.5-22.88-3.67-7.04-8.73-12.54-15.18-16.5-6.31-3.96-13.28-5.94-20.9-5.94z"/>
  </mask>
  <path d="M122.44 55.78c-4.987-6.307-10.927-11.293-17.82-14.96-6.893-3.813-13.713-5.72-20.46-5.72-7.773 0-14.887 1.98-21.34 5.94-6.307 3.813-11.293 9.167-14.96 16.06-3.667 6.747-5.5 14.3-5.5 22.66s1.833 15.987 5.5 22.88c3.667 6.747 8.653 12.1 14.96 16.06 6.453 3.813 13.567 5.72 21.34 5.72 6.307 0 12.907-1.613 19.8-4.84 6.893-3.227 13.053-7.627 18.48-13.2l23.54 25.3c-8.36 8.8-18.333 15.84-29.92 21.12-11.44 5.133-22.807 7.7-34.1 7.7-15.253 0-29.04-3.52-41.36-10.56-12.32-7.04-22-16.647-29.04-28.82C4.52 108.947 1 95.307 1 80.2c0-14.96 3.593-28.453 10.78-40.48 7.187-12.027 17.013-21.487 29.48-28.38C53.873 4.447 67.953 1 83.5 1c11.44 0 22.733 2.42 33.88 7.26 11.147 4.693 20.607 11.147 28.38 19.36l-23.32 28.16zm187.565 101.86l-10.56-27.28h-66.66l-10.78 27.28h-41.36l66.22-154.22h41.36l64.68 154.22h-42.9zm-65.12-58.08h42.68l-21.12-55-21.56 55zm249.797 58.08l-22.44-42.68h-29.92v42.68h-40.26V3.42h69.3c20.386 0 36.153 4.767 47.3 14.3 11.293 9.387 16.94 22.66 16.94 39.82 0 11.587-2.347 21.633-7.04 30.14-4.694 8.36-11.514 14.887-20.46 19.58l32.12 50.38h-45.54zm-52.36-74.8h29.26c8.213 0 14.52-2.053 18.92-6.16 4.546-4.107 6.82-10.047 6.82-17.82 0-7.48-2.274-13.2-6.82-17.16-4.4-4.107-10.707-6.16-18.92-6.16h-29.26v47.3zM662.901 3.42c16.133 0 30.36 3.227 42.68 9.68 12.467 6.453 22.147 15.547 29.04 27.28 6.893 11.587 10.34 24.933 10.34 40.04s-3.52 28.527-10.56 40.26c-6.893 11.733-16.72 20.827-29.48 27.28-12.613 6.453-27.133 9.68-43.56 9.68h-64.9V3.42h66.44zm1.1 121.66c7.773 0 14.667-1.833 20.68-5.5s10.707-8.873 14.08-15.62c3.373-6.747 5.06-14.447 5.06-23.1 0-8.8-1.833-16.573-5.5-23.32-3.52-6.747-8.433-11.953-14.74-15.62-6.307-3.813-13.493-5.72-21.56-5.72h-25.3v88.88h27.28zm245.315 32.56l-10.56-27.28h-66.66l-10.78 27.28h-41.36l66.22-154.22h41.36l64.68 154.22h-42.9zm-65.12-58.08h42.68l-21.12-55-21.56 55zM1069.13 3.42c19.66 0 34.91 4.767 45.76 14.3 10.86 9.387 16.28 22.66 16.28 39.82 0 18.187-5.42 32.34-16.28 42.46-10.85 9.973-26.1 14.96-45.76 14.96h-27.5v42.68h-40.26V3.42h67.76zm-1.98 79.42c8.22 0 14.52-2.053 18.92-6.16 4.55-4.107 6.82-10.047 6.82-17.82 0-7.48-2.27-13.2-6.82-17.16-4.4-4.107-10.7-6.16-18.92-6.16h-25.52v47.3h25.52zM1186.1 3.42h40.26v154.22h-40.26V3.42zM1365.04 1c15.69 0 29.84 3.447 42.46 10.34 12.76 6.893 22.73 16.353 29.92 28.38 7.33 12.027 11 25.52 11 40.48 0 15.107-3.67 28.747-11 40.92-7.19 12.173-17.16 21.78-29.92 28.82-12.62 7.04-26.77 10.56-42.46 10.56-15.7 0-29.92-3.447-42.68-10.34-12.62-7.04-22.59-16.647-29.92-28.82-7.19-12.32-10.78-26.033-10.78-41.14 0-14.96 3.59-28.453 10.78-40.48 7.33-12.027 17.3-21.487 29.92-28.38C1335.12 4.447 1349.34 1 1365.04 1zm.44 34.1c-7.63 0-14.74 1.98-21.34 5.94-6.46 3.96-11.59 9.46-15.4 16.5-3.82 6.893-5.72 14.52-5.72 22.88 0 8.507 1.9 16.28 5.72 23.32 3.96 6.893 9.16 12.393 15.62 16.5 6.45 3.96 13.49 5.94 21.12 5.94 7.62 0 14.59-1.98 20.9-5.94 6.45-4.107 11.51-9.607 15.18-16.5 3.66-7.04 5.5-14.813 5.5-23.32 0-8.36-1.84-15.987-5.5-22.88-3.67-7.04-8.73-12.54-15.18-16.5-6.31-3.96-13.28-5.94-20.9-5.94z" stroke="#426049" mask="url(#TvG_xq6PiQ_a)"/>
</svg>
